<?xml version="1.0" encoding="iso-8859-1"?>
<!-- Uploaded to: SVG Repo, www.svgrepo.com, Generator: SVG Repo Mixer Tools -->
<!DOCTYPE svg PUBLIC "-//W3C//DTD SVG 1.1//EN" "http://www.w3.org/Graphics/SVG/1.1/DTD/svg11.dtd">
<svg fill="#000000" version="1.1" id="Capa_1" xmlns="http://www.w3.org/2000/svg" xmlns:xlink="http://www.w3.org/1999/xlink" 
	 width="800px" height="800px" viewBox="0 0 593.912 593.912"
	 xml:space="preserve">
<g>
	<g>
		<g>
			<path d="M564.34,246.605L334.045,113.644c-8.852-5.111-18.896-7.813-29.047-7.813l0,0l0,0c-32.071,0-58.163,26.093-58.163,58.163
				v41.521L87.709,113.644c-8.852-5.111-18.896-7.813-29.046-7.813h0l0,0c-32.071,0-58.163,26.093-58.163,58.163v265.923
				c0,32.07,26.092,58.164,58.164,58.164c10.149,0,20.193-2.703,29.045-7.812l159.127-91.873v41.521
				c0,32.07,26.092,58.164,58.164,58.164c10.15,0,20.193-2.703,29.045-7.812l230.297-132.963
				c9.16-5.289,16.695-12.941,21.787-22.129c4.766-8.598,7.283-18.355,7.283-28.221c0-9.867-2.518-19.625-7.283-28.222
				C581.035,259.546,573.502,251.894,564.34,246.605z M542.922,310.206L312.625,443.167c-2.465,1.424-5.078,2.072-7.625,2.072
				c-7.993,0-15.324-6.391-15.324-15.322v-66.254v-49.469v-34.478v-49.467v-66.254c0-8.932,7.332-15.323,15.324-15.324
				c2.547,0,5.16,0.65,7.625,2.073l230.297,132.962C553.121,289.594,553.121,304.317,542.922,310.206z M66.29,443.167
				c-2.465,1.424-5.08,2.072-7.626,2.072c-7.993,0-15.324-6.391-15.324-15.322V163.995c0-8.932,7.332-15.323,15.324-15.324
				c2.547,0,5.161,0.65,7.626,2.073l180.546,104.238v83.946L66.29,443.167z"/>
			<path d="M305,488.581c-32.348,0-58.664-26.316-58.664-58.664v-40.655L87.959,480.701c-8.93,5.155-19.061,7.88-29.295,7.88
				C26.316,488.581,0,462.265,0,429.917V163.994c0-32.347,26.316-58.663,58.663-58.663c10.238,0,20.369,2.725,29.297,7.88
				l158.376,91.438v-40.655c0-32.347,26.316-58.663,58.663-58.663c10.238,0,20.369,2.725,29.297,7.88L564.59,246.172
				c9.238,5.333,16.838,13.051,21.977,22.32c4.806,8.669,7.346,18.512,7.346,28.464c0,9.951-2.54,19.793-7.346,28.463
				c-5.136,9.267-12.734,16.984-21.975,22.319L334.295,480.701C325.364,485.856,315.234,488.581,305,488.581z M247.336,387.529
				v42.388c0,31.796,25.868,57.664,57.664,57.664c10.06,0,20.017-2.679,28.795-7.745l230.297-132.963
				c9.083-5.245,16.553-12.831,21.6-21.938c4.724-8.522,7.221-18.197,7.221-27.979c0-9.783-2.497-19.458-7.221-27.979
				c-5.051-9.11-12.521-16.696-21.602-21.938L333.795,114.077c-8.775-5.067-18.733-7.746-28.797-7.746
				c-31.795,0-57.663,25.868-57.663,57.663v42.388L87.459,114.077c-8.776-5.067-18.734-7.746-28.796-7.746
				C26.868,106.332,1,132.199,1,163.994v265.923c0,31.796,25.868,57.664,57.664,57.664c10.059,0,20.017-2.679,28.795-7.745
				L247.336,387.529z M305,445.739c-8.726,0-15.824-7.098-15.824-15.822V163.995c0-8.724,7.099-15.823,15.824-15.824l0,0
				c2.766,0,5.416,0.72,7.875,2.14l230.297,132.962c4.946,2.855,7.899,7.971,7.899,13.682c0,5.713-2.953,10.828-7.899,13.684
				L312.875,443.6C310.418,445.02,307.768,445.739,305,445.739z M305,149.171c-8.174,0.001-14.824,6.651-14.824,14.824v265.922
				c0,8.173,6.65,14.822,14.824,14.822c2.59,0,5.071-0.675,7.375-2.005l230.297-132.961c4.634-2.676,7.399-7.467,7.399-12.818
				c0-5.35-2.767-10.141-7.399-12.816L312.375,151.177C310.069,149.846,307.588,149.171,305,149.171L305,149.171z M58.664,445.739
				c-8.726,0-15.824-7.098-15.824-15.822V163.995c0-8.724,7.099-15.823,15.824-15.824l0,0c2.766,0,5.416,0.72,7.876,2.14
				l180.796,104.383v84.524l-0.25,0.144L66.54,443.6C64.082,445.02,61.432,445.739,58.664,445.739z M58.664,149.171
				c-8.174,0.001-14.824,6.651-14.824,14.824v265.922c0,8.173,6.65,14.822,14.824,14.822c2.591,0,5.072-0.675,7.376-2.005
				L246.335,338.64v-83.369L66.04,151.177C63.734,149.846,61.252,149.171,58.664,149.171L58.664,149.171z"/>
		</g>
	</g>
</g>
</svg>